<svg width="174" height="32" viewBox="0 0 174 32" fill="none" xmlns="http://www.w3.org/2000/svg">
<path d="M29.4199 8.46539H24.5208V25.3615H29.4199V8.46539Z" fill="white"/>
<path d="M51.8952 16.9134C51.8952 22.2211 48.221 25.6127 43.4784 25.6127C41.3744 25.6127 39.6469 24.9529 38.3907 23.5714V31.4542H33.4915V8.46537H38.1707V10.4128C39.3957 8.93656 41.2171 8.21411 43.4784 8.21411C48.221 8.21411 51.8952 11.6057 51.8952 16.9134ZM46.9334 16.9134C46.9334 13.993 45.0806 12.2342 42.6307 12.2342C40.1815 12.2342 38.328 13.993 38.328 16.9134C38.328 19.8338 40.1808 21.5926 42.6307 21.5926C45.0806 21.5926 46.9334 19.8338 46.9334 16.9134Z" fill="white"/>
<path d="M71.9511 15.6885V25.3615H67.0519V16.4423C67.0519 13.7098 65.7957 12.4535 63.629 12.4535C61.2738 12.4535 59.5776 13.8984 59.5776 17.0074V25.3615H54.6785V2.05872H59.5776V10.2242C60.8965 8.90527 62.7806 8.21414 64.9479 8.21414C68.9367 8.21414 71.9511 10.5381 71.9511 15.6885Z" fill="white"/>
<path d="M92.5416 18.295H79.7596C80.2308 20.399 82.0209 21.6866 84.5961 21.6866C86.3862 21.6866 87.6738 21.1528 88.8361 20.0538L91.4426 22.8802C89.8725 24.6703 87.5172 25.6127 84.4708 25.6127C78.6293 25.6127 74.8291 21.9378 74.8291 16.9134C74.8291 11.857 78.6919 8.21411 83.8423 8.21411C88.8041 8.21411 92.6356 11.5431 92.6356 16.9761C92.6356 17.3526 92.5729 17.8864 92.5416 18.295ZM79.6969 15.4372H88.0197C87.6745 13.3019 86.0723 11.9196 83.8743 11.9196C81.6437 11.9196 80.0422 13.2706 79.6969 15.4372Z" fill="white"/>
<path d="M106.076 8.21411V12.7367C105.667 12.7054 105.354 12.6741 104.977 12.6741C102.276 12.6741 100.486 14.1503 100.486 17.3846V25.3615H95.5865V8.46537H100.266V10.6954C101.459 9.06184 103.469 8.21411 106.076 8.21411Z" fill="white"/>
<path d="M15.2737 20.2807C14.2388 20.9015 13.0277 21.2586 11.7339 21.2586C10.4407 21.2586 9.22896 20.9015 8.19401 20.2807C7.221 19.6967 6.40389 18.8796 5.82203 17.9066C5.2012 16.8717 4.84417 15.662 4.84417 14.3689C4.84417 13.0757 5.2012 11.8639 5.82203 10.829C6.40598 9.85599 7.22309 9.03888 8.1961 8.45703C9.23105 7.83619 10.4407 7.47915 11.7339 7.47915C13.027 7.47915 14.2367 7.83619 15.2716 8.45703C16.2446 9.03888 17.0617 9.85599 17.6457 10.829L21.1333 7.34134C20.4589 6.44211 19.6606 5.64171 18.7593 4.96937C16.8001 3.50151 14.3675 2.6322 11.7339 2.6322C9.10021 2.6322 6.66767 3.50151 4.70843 4.96937C3.80781 5.6424 3.00881 6.44211 2.33508 7.34134C0.868612 9.30058 0 11.7331 0 14.3689C0 17.0046 0.869308 19.4364 2.33508 21.3943C3.00951 22.2949 3.80781 23.0939 4.70843 23.7662C6.66767 25.2341 9.10021 26.1027 11.7339 26.1027C14.3675 26.1027 16.8001 25.2334 18.7593 23.7662C19.6599 23.0932 20.4589 22.2949 21.1333 21.3943L17.6457 17.9066C17.0638 18.8803 16.2467 19.6967 15.2737 20.2807Z" fill="white"/>
<path d="M28.9041 1.3467C27.8358 0.278338 26.1041 0.279034 25.0365 1.34739C23.9695 2.41506 23.9695 4.14601 25.0372 5.21368C26.1048 6.28134 27.8351 6.28134 28.9034 5.21437C29.9718 4.14671 29.9718 2.41506 28.9041 1.3467Z" fill="white"/>
<path d="M118.575 8.71667C115.718 8.71667 113.489 9.8783 112.295 11.889V8.84196H110.16V25.3615H112.389V16.6935C112.389 12.9254 114.62 10.726 118.168 10.726C121.309 10.726 123.131 12.5161 123.131 16.0024V25.3615H125.36V15.7825C125.359 11.0406 122.595 8.71667 118.575 8.71667Z" fill="white"/>
<path d="M141.581 17.5099C141.581 21.278 139.415 23.5087 135.96 23.5087C132.819 23.5087 130.998 21.7186 130.998 18.201V8.84192H128.767V18.421C128.767 23.1642 131.532 25.5188 135.739 25.5188C138.377 25.5188 140.513 24.3572 141.675 22.3464V25.3622H143.812V8.84192H141.581V17.5099V17.5099Z" fill="white"/>
<path d="M163.417 23.5087L173.812 10.3181V8.84192H160.747V10.726H170.954L160.559 23.8846V25.3615H174V23.5087H163.417Z" fill="white"/>
<path d="M152.351 5.23041H150.122V8.84195H147.171V10.726H150.122V20.7136V25.3615H152.351V24.962V10.726H157.377V8.84195H152.351V5.23041Z" fill="white"/>
</svg>
